<?xml version="1.0" encoding="utf-8"?><svg viewBox="0 0 512 512" xmlns="http://www.w3.org/2000/svg" xmlns:xlink="http://www.w3.org/1999/xlink"><style>:root>svg{display:none}:root>svg:target{display:block}</style><svg viewBox="0 0 512.001 512" id="address" xmlns="http://www.w3.org/2000/svg"><path d="M316 260c-5.52 0-10 4.48-10 10s4.48 10 10 10 10-4.48 10-10-4.48-10-10-10zm0 0"/><path d="M102.168 369.785l-100 126a9.993 9.993 0 00-1.172 10.563A9.997 9.997 0 0010 512h492a9.997 9.997 0 009.004-5.652 9.985 9.985 0 00-1.172-10.563l-100-126A9.996 9.996 0 00402 366h-87.598l74.786-117.297C406.73 222.403 416 191.73 416 160 416 71.777 344.227 0 256 0S96 71.777 96 160c0 31.73 9.27 62.398 26.813 88.703L197.598 366H110c-3.05 0-5.934 1.395-7.832 3.785zM64.832 449h60.465l-34.125 43H30.703zm145.52-63l27.414 43h-71.063l34.129-43zm91.3 0h9.52l34.125 43h-71.059zm59.52 63l34.125 43H116.703l34.129-43zm59.66 43l-34.129-43h60.469l34.125 43zm10.465-63h-60.465l-34.129-43h60.469zm-291.79-191.313C124.13 214.665 116 187.802 116 160c0-77.195 62.805-140 140-140s140 62.805 140 140c0 27.8-8.129 54.664-23.504 77.688-.043.058-.078.117-.117.175C365.812 248.164 261.059 412.47 256 420.398a6717131.891 6717131.891 0 00-116.492-182.71zM175.298 386l-34.125 43H80.703l34.129-43zm0 0"/><path d="M256 260c54.898 0 100-44.457 100-100 0-55.14-44.86-100-100-100s-100 44.86-100 100c0 55.559 45.117 100 100 100zm0-180c44.113 0 80 35.887 80 80 0 44.523-36.176 80-80 80-43.836 0-80-35.477-80-80 0-44.113 35.887-80 80-80zm0 0M298.121 294.125c-4.726-2.852-10.875-1.328-13.726 3.402l-36.961 61.32c-2.852 4.731-1.329 10.876 3.402 13.727 4.75 2.864 10.887 1.309 13.727-3.402l36.96-61.32c2.852-4.73 1.329-10.875-3.402-13.727zm0 0"/></svg><svg viewBox="0 0 414.298 414.299" id="close" xmlns="http://www.w3.org/2000/svg"><path d="M3.663 410.637a12.465 12.465 0 008.839 3.661c3.199 0 6.398-1.221 8.839-3.661l185.809-185.81 185.81 185.811a12.465 12.465 0 008.84 3.661c3.198 0 6.397-1.221 8.839-3.661 4.881-4.881 4.881-12.796 0-17.679l-185.811-185.81 185.811-185.81c4.881-4.882 4.881-12.796 0-17.678-4.882-4.882-12.796-4.882-17.679 0l-185.81 185.81L21.34 3.663c-4.882-4.882-12.796-4.882-17.678 0-4.882 4.881-4.882 12.796 0 17.678l185.81 185.809L3.663 392.959c-4.882 4.882-4.882 12.797 0 17.678z"/></svg><svg viewBox="0 0 512 512" id="envelope" xmlns="http://www.w3.org/2000/svg"><path d="M469.333 64H42.667C19.135 64 0 83.135 0 106.667v298.667C0 428.865 19.135 448 42.667 448h426.667C492.865 448 512 428.865 512 405.333V106.667C512 83.135 492.865 64 469.333 64zM42.667 85.333h426.667c1.572 0 2.957.573 4.432.897-36.939 33.807-159.423 145.859-202.286 184.478-3.354 3.021-8.76 6.625-15.479 6.625s-12.125-3.604-15.49-6.635C197.652 232.085 75.161 120.027 38.228 86.232c1.478-.324 2.866-.899 4.439-.899zm-21.334 320V106.667c0-2.09.63-3.986 1.194-5.896 28.272 25.876 113.736 104.06 169.152 154.453C136.443 302.671 50.957 383.719 22.46 410.893c-.503-1.814-1.127-3.588-1.127-5.56zm448 21.334H42.667c-1.704 0-3.219-.594-4.81-.974 29.447-28.072 115.477-109.586 169.742-156.009a7980.773 7980.773 0 0018.63 16.858c8.792 7.938 19.083 12.125 29.771 12.125s20.979-4.188 29.76-12.115a8178.815 8178.815 0 0018.641-16.868c54.268 46.418 140.286 127.926 169.742 156.009-1.591.38-3.104.974-4.81.974zm21.334-21.334c0 1.971-.624 3.746-1.126 5.56-28.508-27.188-113.984-108.227-169.219-155.668 55.418-50.393 140.869-128.57 169.151-154.456.564 1.91 1.194 3.807 1.194 5.897v298.667z"/></svg><svg viewBox="0 0 482.6 482.6" id="phone" xmlns="http://www.w3.org/2000/svg"><path d="M98.339 320.8c47.6 56.9 104.9 101.7 170.3 133.4 24.9 11.8 58.2 25.8 95.3 28.2 2.3.1 4.5.2 6.8.2 24.9 0 44.9-8.6 61.2-26.3.1-.1.3-.3.4-.5 5.8-7 12.4-13.3 19.3-20 4.7-4.5 9.5-9.2 14.1-14 21.3-22.2 21.3-50.4-.2-71.9l-60.1-60.1c-10.2-10.6-22.4-16.2-35.2-16.2-12.8 0-25.1 5.6-35.6 16.1l-35.8 35.8c-3.3-1.9-6.7-3.6-9.9-5.2-4-2-7.7-3.9-11-6-32.6-20.7-62.2-47.7-90.5-82.4-14.3-18.1-23.9-33.3-30.6-48.8 9.4-8.5 18.2-17.4 26.7-26.1 3-3.1 6.1-6.2 9.2-9.3 10.8-10.8 16.6-23.3 16.6-36s-5.7-25.2-16.6-36l-29.8-29.8c-3.5-3.5-6.8-6.9-10.2-10.4-6.6-6.8-13.5-13.8-20.3-20.1-10.3-10.1-22.4-15.4-35.2-15.4-12.7 0-24.9 5.3-35.6 15.5l-37.4 37.4c-13.6 13.6-21.3 30.1-22.9 49.2-1.9 23.9 2.5 49.3 13.9 80 17.5 47.5 43.9 91.6 83.1 138.7zm-72.6-216.6c1.2-13.3 6.3-24.4 15.9-34l37.2-37.2c5.8-5.6 12.2-8.5 18.4-8.5 6.1 0 12.3 2.9 18 8.7 6.7 6.2 13 12.7 19.8 19.6 3.4 3.5 6.9 7 10.4 10.6l29.8 29.8c6.2 6.2 9.4 12.5 9.4 18.7s-3.2 12.5-9.4 18.7c-3.1 3.1-6.2 6.3-9.3 9.4-9.3 9.4-18 18.3-27.6 26.8l-.5.5c-8.3 8.3-7 16.2-5 22.2.1.3.2.5.3.8 7.7 18.5 18.4 36.1 35.1 57.1 30 37 61.6 65.7 96.4 87.8 4.3 2.8 8.9 5 13.2 7.2 4 2 7.7 3.9 11 6 .4.2.7.4 1.1.6 3.3 1.7 6.5 2.5 9.7 2.5 8 0 13.2-5.1 14.9-6.8l37.4-37.4c5.8-5.8 12.1-8.9 18.3-8.9 7.6 0 13.8 4.7 17.7 8.9l60.3 60.2c12 12 11.9 25-.3 37.7-4.2 4.5-8.6 8.8-13.3 13.3-7 6.8-14.3 13.8-20.9 21.7-11.5 12.4-25.2 18.2-42.9 18.2-1.7 0-3.5-.1-5.2-.2-32.8-2.1-63.3-14.9-86.2-25.8-62.2-30.1-116.8-72.8-162.1-127-37.3-44.9-62.4-86.7-79-131.5-10.3-27.5-14.2-49.6-12.6-69.7z"/></svg></svg>